<svg width="32" height="32" viewBox="0 0 32 32" fill="none" xmlns="http://www.w3.org/2000/svg">
<!-- Simplified geometric shapes for favicon - no text -->
<g transform="scale(0.07) translate(0, 0)">
<path d="M231.86 231.52C231.857 190.858 242.57 150.913 262.921 115.71C283.272 80.507 312.541 51.2891 347.78 31.0002C312.545 10.6363 272.556 -0.0578667 231.86 0.000235498C103.86 0.000235498 0 103.65 0 231.5C0 359.35 103.81 463.02 231.86 463.02C272.556 463.078 312.545 452.384 347.78 432.02C312.543 411.735 283.274 382.52 262.923 347.321C242.573 312.121 231.858 272.179 231.86 231.52Z" fill="#10b981"/>
<path d="M463.71 0.0202251C423.123 -0.0481256 383.234 10.5786 348.06 30.8302L347.78 31.0002C383.01 51.292 412.272 80.5083 432.618 115.707C452.964 150.906 463.677 190.844 463.677 231.5C463.677 272.156 452.964 312.095 432.618 347.293C412.272 382.492 383.01 411.708 347.78 432L348.06 432.17C383.23 452.436 423.119 463.076 463.71 463.02H609.36V0.0202251H463.71Z" fill="#34d399"/>
<path d="M463.71 231.52C463.716 190.856 453.003 150.909 432.65 115.705C412.297 80.5014 383.023 51.2848 347.78 31.0002C312.552 51.2941 283.294 80.5111 262.949 115.71C242.605 150.908 231.894 190.845 231.894 231.5C231.894 272.155 242.605 312.092 262.949 347.291C283.294 382.489 312.552 411.706 347.78 432C383.018 411.719 412.287 382.509 432.64 347.313C452.993 312.116 463.709 272.177 463.71 231.52Z" fill="#059669"/>
</g>

<!-- Simple bar chart elements for data visualization -->
<rect x="20" y="12" width="2" height="8" fill="#10b981" rx="1"/>
<rect x="23" y="10" width="2" height="10" fill="#34d399" rx="1"/>
<rect x="26" y="8" width="2" height="12" fill="#059669" rx="1"/>
<rect x="29" y="11" width="2" height="9" fill="#10b981" rx="1"/>

<!-- Dollar sign in circle -->
<circle cx="8" cy="16" r="6" fill="#10b981" opacity="0.3"/>
<text x="5.5" y="19" font-family="Arial, sans-serif" font-size="8" font-weight="700" fill="#10b981">$</text>
</svg>