<svg width="1146" height="463" viewBox="0 0 1146 463" fill="none" xmlns="http://www.w3.org/2000/svg">
<g clip-path="url(#clip0)">
<path d="M231.86 231.52C231.857 190.858 242.57 150.913 262.921 115.71C283.272 80.507 312.541 51.2891 347.78 31.0002C312.545 10.6363 272.556 -0.0578667 231.86 0.000235498C103.86 0.000235498 0 103.65 0 231.5C0 359.35 103.81 463.02 231.86 463.02C272.556 463.078 312.545 452.384 347.78 432.02C312.543 411.735 283.274 382.52 262.923 347.321C242.573 312.121 231.858 272.179 231.86 231.52Z" fill="#25B6EA"/>
<path d="M463.71 0.0202251C423.123 -0.0481256 383.234 10.5786 348.06 30.8302L347.78 31.0002C383.01 51.292 412.272 80.5083 432.618 115.707C452.964 150.906 463.677 190.844 463.677 231.5C463.677 272.156 452.964 312.095 432.618 347.293C412.272 382.492 383.01 411.708 347.78 432L348.06 432.17C383.23 452.436 423.119 463.076 463.71 463.02H609.36V0.0202251H463.71Z" fill="#FFCC2C"/>
<path d="M463.71 231.52C463.716 190.856 453.003 150.909 432.65 115.705C412.297 80.5014 383.023 51.2848 347.78 31.0002C312.552 51.2941 283.294 80.5111 262.949 115.71C242.605 150.908 231.894 190.845 231.894 231.5C231.894 272.155 242.605 312.092 262.949 347.291C283.294 382.489 312.552 411.706 347.78 432C383.018 411.719 412.287 382.509 432.64 347.313C452.993 312.116 463.709 272.177 463.71 231.52Z" fill="#029C57"/>
<path d="M729.13 123.07C705.39 123.07 683.94 107.07 683.94 77.0702C683.94 47.0702 705.94 31.2402 729.51 31.2402C752.74 31.2402 774.7 47.2402 774.7 77.0702C774.7 104.15 756.06 123.07 729.13 123.07ZM729.38 105.67C743.22 105.67 755.79 96.5302 755.79 77.1102C755.79 58.1902 743.35 48.8002 729.51 48.8002C715.67 48.8002 703.11 58.3202 703.11 77.1102C703.11 96.5202 715.16 105.67 729.38 105.67Z" fill="#383535"/>
<path d="M832.16 121.41V32.5203C844.86 32.3903 857.43 32.5203 870.16 32.5203C890.85 32.5203 901.77 48.1303 901.77 64.8903C901.77 81.3903 890.47 96.2503 870.16 96.2503H851.25V121.38L832.16 121.41ZM870.16 80.0303C878.28 80.0303 883.62 72.9203 883.62 64.4103C883.62 56.1603 878.54 49.1803 870.16 49.1803C863.69 49.0503 857.34 49.1803 850.87 49.1803V80.0303H870.16Z" fill="#383535"/>
<path d="M1011.36 49.3103H976.06V67.3103H1009.06V83.9503H976.06V104.26H1012.36V121.52H956.89V32.6703H1011.35L1011.36 49.3103Z" fill="#383535"/>
<path d="M1090.13 70.7603V121.52H1071.21V32.3003H1077.21L1127.06 83.0803V32.6703H1146.06V121.79H1140.35L1090.13 70.7603Z" fill="#383535"/>
<path d="M716.94 187.82C745.26 187.82 760.49 209.27 760.49 231.87C760.87 254.59 745.64 276.55 716.94 276.55H683.94V187.82H716.94ZM716.69 259.42C733.07 259.42 741.58 246.22 741.58 232C741.58 217.78 732.81 205 716.69 205H702.85V259.42H716.69Z" fill="#383535"/>
<path d="M838.26 261.83L831.4 276.52H811.6V274.02L852.48 186.93H861.24L901.86 274.02V276.52H882.18L875.18 261.8L838.26 261.83ZM844.48 245.83H869.11L856.8 216.52L844.48 245.83Z" fill="#383535"/>
<path d="M945.86 204.19V187.69H1011.62V204.19H988.06V276.52H969.65V204.19H945.86Z" fill="#383535"/>
<path d="M1082.14 261.83L1075.28 276.52H1055.48V274.02L1096.36 186.93H1105.12L1145.74 274.02V276.52H1126.06L1119.06 261.8L1082.14 261.83ZM1088.36 245.83H1112.99L1100.67 216.52L1088.36 245.83Z" fill="#383535"/>
<path d="M751.06 401.04C751.06 420.33 735.45 431.76 717.06 431.76C698.67 431.76 683.93 420.33 683.93 401.04V390.25H701.57V400.66C701.57 410.18 708.05 414.87 717.06 414.87C726.07 414.87 732.06 409.87 732.06 400.66V358H716.19V341.62H751.06V401.04Z" fill="#383535"/>
<path d="M795.58 415.76L788.72 430.52H768.92V427.98L809.79 340.89H818.55L859.18 427.98V430.52H839.5L832.5 415.79L795.58 415.76ZM801.79 399.76H826.42L814.11 370.43L801.79 399.76Z" fill="#383535"/>
<path d="M935.91 384.41C944.16 387.83 948.6 395.07 948.6 404.21C948.6 419.83 938.19 430.49 920.42 430.49H879.16V341.75H916.86C933.11 341.75 944.79 351.4 944.79 368.03C944.804 371.286 943.997 374.494 942.445 377.356C940.893 380.219 938.646 382.645 935.91 384.41ZM898.06 358V378.18H915.45C921.92 378.18 925.99 374.63 926.11 368.66C926.24 362.19 922.05 358 915.45 358H898.06ZM898.06 393.67V413.99H919.13C925.6 413.99 929.41 410.18 929.8 404.21C929.916 402.539 929.617 400.864 928.93 399.336C928.242 397.808 927.188 396.473 925.86 395.45C923.7 393.93 921.16 393.67 918.24 393.67H898.06Z" fill="#383535"/>
<path d="M989.06 415.76L982.17 430.52H962.37V427.98L1003.24 340.89H1012L1052.63 427.98V430.52H1032.95L1025.95 415.79L989.06 415.76ZM995.27 399.76H1019.9L1007.59 370.43L995.27 399.76Z" fill="#383535"/>
<path d="M1146.12 427.7V430.36H1125.8L1107.52 401.04H1091.65V430.36H1072.65V341.52C1085.34 341.52 1097.91 341.39 1110.65 341.52C1130.96 341.52 1142 356.24 1142 371.99C1142 383.28 1136.29 393.19 1126.14 398.14L1146.12 427.7ZM1110.44 385.42C1118.44 385.42 1123.64 379.2 1123.52 371.58C1123.4 363.96 1118.52 358.12 1110.44 358.12H1091.44V385.42H1110.44Z" fill="#383535"/>
</g>
<defs>
<clipPath id="clip0">
<rect width="1146" height="463" fill="white"/>
</clipPath>
</defs>
</svg>
